<?xml version="1.0" encoding="utf-8"?>
<!-- Generator: Adobe Illustrator 16.0.0, SVG Export Plug-In . SVG Version: 6.00 Build 0)  -->
<!DOCTYPE svg PUBLIC "-//W3C//DTD SVG 1.1//EN" "http://www.w3.org/Graphics/SVG/1.1/DTD/svg11.dtd">
<svg version="1.1" id="Layer_1" xmlns="http://www.w3.org/2000/svg" xmlns:xlink="http://www.w3.org/1999/xlink" x="0px" y="0px"
	 width="189.248px" height="168.321px" viewBox="0 0 189.248 168.321" enable-background="new 0 0 189.248 168.321"
	 xml:space="preserve">
<rect y="-147.596" fill="#C7202A" width="1600" height="61.496"/>
<g>
	<rect x="910" y="-128" fill="#FFFFFF" width="198" height="24"/>
	<g>
		<text transform="matrix(1 0 0 1 579.334 -110.2671)" fill="#FFFFFF" font-family="'OpenSans'" font-size="19">Downloads </text>
		<text transform="matrix(1 0 0 1 719.3799 -110.2671)" fill="#FFFFFF" font-family="'OpenSans'" font-size="19">Events</text>
		<text transform="matrix(1 0 0 1 813.6113 -110.2671)" fill="#FFFFFF" font-family="'OpenSans'" font-size="19">Contact</text>
		<text transform="matrix(1 0 0 1 916.749 -112.0288)" fill="#5E5E5E" font-family="'OpenSans'" font-size="13">Search...</text>
		<text transform="matrix(1 0 0 1 487.0869 -110.2671)" fill="#FFFFFF" font-family="'OpenSans'" font-size="19">Signup</text>
	</g>
</g>
<g>
	<g>
		<rect x="0" y="23.55" fill="#1A488D" width="189.247" height="121.22"/>
		<path fill="#FFFFFF" d="M189.248,23.55c-146.961,0-164.126,7.598-167.646,21.808c-3.515,14.21,6.613,35.033,64.086,99.412h103.56
			C67.988,97.354,57.858,76.531,61.374,62.318C64.894,48.108,82.06,40.511,189.248,23.55z"/>
		<path fill="#D1202D" d="M189.248,23.55v121.22C67.988,97.354,57.858,76.531,61.374,62.318
			C64.894,48.108,82.06,40.511,189.248,23.55z"/>
		<rect x="0.028" fill="#1A488D" width="189.192" height="23.55"/>
		<rect x="0.028" y="144.771" fill="#0F8442" width="189.192" height="23.551"/>
		<g>
			<linearGradient id="SVGID_1_" gradientUnits="userSpaceOnUse" x1="4.882813e-004" y1="84.1602" x2="189.2476" y2="84.1602">
				<stop  offset="0" style="stop-color:#FFFFFF"/>
				<stop  offset="1" style="stop-color:#000000"/>
			</linearGradient>
			<rect x="0" y="23.55" opacity="0.3" fill="url(#SVGID_1_)" width="189.247" height="121.22"/>
			<linearGradient id="SVGID_2_" gradientUnits="userSpaceOnUse" x1="20.9819" y1="84.1602" x2="189.2476" y2="84.1602">
				<stop  offset="0" style="stop-color:#FFFFFF"/>
				<stop  offset="1" style="stop-color:#000000"/>
			</linearGradient>
			<path opacity="0.3" fill="url(#SVGID_2_)" d="M189.248,23.55c-146.961,0-164.126,7.598-167.646,21.808
				c-3.515,14.21,6.613,35.033,64.086,99.412h103.56C67.988,97.354,57.858,76.531,61.374,62.318
				C64.894,48.108,82.06,40.511,189.248,23.55z"/>
			<linearGradient id="SVGID_3_" gradientUnits="userSpaceOnUse" x1="60.8247" y1="84.1602" x2="189.2476" y2="84.1602">
				<stop  offset="0" style="stop-color:#FFFFFF"/>
				<stop  offset="1" style="stop-color:#000000"/>
			</linearGradient>
			<path opacity="0.3" fill="url(#SVGID_3_)" d="M189.248,23.55v121.22C67.988,97.354,57.858,76.531,61.374,62.318
				C64.894,48.108,82.06,40.511,189.248,23.55z"/>
			<linearGradient id="SVGID_4_" gradientUnits="userSpaceOnUse" x1="0.0278" y1="11.7754" x2="189.2202" y2="11.7754">
				<stop  offset="0" style="stop-color:#FFFFFF"/>
				<stop  offset="1" style="stop-color:#000000"/>
			</linearGradient>
			<rect x="0.028" opacity="0.3" fill="url(#SVGID_4_)" width="189.192" height="23.55"/>
			<linearGradient id="SVGID_5_" gradientUnits="userSpaceOnUse" x1="0.0278" y1="156.5459" x2="189.2202" y2="156.5459">
				<stop  offset="0" style="stop-color:#FFFFFF"/>
				<stop  offset="1" style="stop-color:#000000"/>
			</linearGradient>
			<rect x="0.028" y="144.771" opacity="0.3" fill="url(#SVGID_5_)" width="189.192" height="23.551"/>
		</g>
		<g>
			<rect x="10.575" y="5.956" fill="none" width="168.1" height="11.64"/>
			<text transform="matrix(1 0 0 1 10.5737 15.126)" fill="#FFFFFF" font-family="'HelveticaNeueLTStd-Md'" font-size="12.8454">MEXICO-UNITED KINGDOM</text>
		</g>
		<g>
			<rect x="3.717" y="150.726" fill="none" width="181.813" height="11.642"/>
			<text transform="matrix(1 0 0 1 3.7173 159.8975)"><tspan x="0" y="0" fill="#FFFFFF" font-family="'HelveticaNeueLTStd-Md'" font-size="12.8454">HEAT TREATMENT NET</tspan><tspan x="143.021" y="0" fill="#FFFFFF" font-family="'HelveticaNeueLTStd-Md'" font-size="12.8454">-</tspan></text>
		</g>
	</g>
</g>
</svg>
