<?xml version="1.0" encoding="utf-8"?>
<!-- Generator: Adobe Illustrator 16.0.0, SVG Export Plug-In . SVG Version: 6.00 Build 0)  -->
<!DOCTYPE svg PUBLIC "-//W3C//DTD SVG 1.1//EN" "http://www.w3.org/Graphics/SVG/1.1/DTD/svg11.dtd">
<svg version="1.1" id="Layer_1" xmlns="http://www.w3.org/2000/svg" xmlns:xlink="http://www.w3.org/1999/xlink" x="0px" y="0px"
	 width="214.5px" height="84px" viewBox="0 0 214.5 84" enable-background="new 0 0 214.5 84" xml:space="preserve">
<rect y="-147.596" fill="#C7202A" width="1600" height="61.496"/>
<g>
	<rect x="910" y="-128" fill="#FFFFFF" width="198" height="24"/>
	<g>
		<text transform="matrix(1 0 0 1 579.334 -110.2671)" fill="#FFFFFF" font-family="'OpenSans'" font-size="19">Downloads </text>
		<text transform="matrix(1 0 0 1 719.3799 -110.2671)" fill="#FFFFFF" font-family="'OpenSans'" font-size="19">Events</text>
		<text transform="matrix(1 0 0 1 813.6113 -110.2671)" fill="#FFFFFF" font-family="'OpenSans'" font-size="19">Contact</text>
		<text transform="matrix(1 0 0 1 916.749 -112.0288)" fill="#5E5E5E" font-family="'OpenSans'" font-size="13">Search...</text>
		<text transform="matrix(1 0 0 1 487.0869 -110.2671)" fill="#FFFFFF" font-family="'OpenSans'" font-size="19">Signup</text>
	</g>
</g>
<g>
	<g>
		<rect x="-440.824" y="-292.367" fill="#1A488D" width="189.247" height="121.22"/>
		<path fill="#FFFFFF" d="M-251.577-292.367c-146.961,0-164.126,7.598-167.646,21.808c-3.515,14.21,6.613,35.033,64.086,99.412
			h103.56c-121.26-47.416-131.39-68.239-127.874-82.452C-375.93-267.809-358.764-275.406-251.577-292.367z"/>
		<path fill="#D1202D" d="M-251.577-292.367v121.22c-121.26-47.416-131.39-68.239-127.874-82.452
			C-375.93-267.809-358.764-275.406-251.577-292.367z"/>
		<rect x="-440.796" y="-315.917" fill="#1A488D" width="189.192" height="23.55"/>
		<rect x="-440.796" y="-171.146" fill="#0F8442" width="189.192" height="23.551"/>
		<g>
			<linearGradient id="SVGID_1_" gradientUnits="userSpaceOnUse" x1="-440.8237" y1="-231.7568" x2="-251.5767" y2="-231.7568">
				<stop  offset="0" style="stop-color:#FFFFFF"/>
				<stop  offset="1" style="stop-color:#000000"/>
			</linearGradient>
			<rect x="-440.824" y="-292.367" opacity="0.3" fill="url(#SVGID_1_)" width="189.247" height="121.22"/>
			<linearGradient id="SVGID_2_" gradientUnits="userSpaceOnUse" x1="-419.8423" y1="-231.7568" x2="-251.5767" y2="-231.7568">
				<stop  offset="0" style="stop-color:#FFFFFF"/>
				<stop  offset="1" style="stop-color:#000000"/>
			</linearGradient>
			<path opacity="0.3" fill="url(#SVGID_2_)" d="M-251.577-292.367c-146.961,0-164.126,7.598-167.646,21.808
				c-3.515,14.21,6.613,35.033,64.086,99.412h103.56c-121.26-47.416-131.39-68.239-127.874-82.452
				C-375.93-267.809-358.764-275.406-251.577-292.367z"/>
			<linearGradient id="SVGID_3_" gradientUnits="userSpaceOnUse" x1="-379.9995" y1="-231.7568" x2="-251.5767" y2="-231.7568">
				<stop  offset="0" style="stop-color:#FFFFFF"/>
				<stop  offset="1" style="stop-color:#000000"/>
			</linearGradient>
			<path opacity="0.3" fill="url(#SVGID_3_)" d="M-251.577-292.367v121.22c-121.26-47.416-131.39-68.239-127.874-82.452
				C-375.93-267.809-358.764-275.406-251.577-292.367z"/>
			<linearGradient id="SVGID_4_" gradientUnits="userSpaceOnUse" x1="-440.7964" y1="-304.1416" x2="-251.604" y2="-304.1416">
				<stop  offset="0" style="stop-color:#FFFFFF"/>
				<stop  offset="1" style="stop-color:#000000"/>
			</linearGradient>
			<rect x="-440.796" y="-315.917" opacity="0.3" fill="url(#SVGID_4_)" width="189.192" height="23.55"/>
			<linearGradient id="SVGID_5_" gradientUnits="userSpaceOnUse" x1="-440.7964" y1="-159.3711" x2="-251.604" y2="-159.3711">
				<stop  offset="0" style="stop-color:#FFFFFF"/>
				<stop  offset="1" style="stop-color:#000000"/>
			</linearGradient>
			<rect x="-440.796" y="-171.146" opacity="0.3" fill="url(#SVGID_5_)" width="189.192" height="23.551"/>
		</g>
		<g>
			<rect x="-430.25" y="-309.961" fill="none" width="168.1" height="11.64"/>
			
				<text transform="matrix(1 0 0 1 -430.2505 -300.791)" fill="#FFFFFF" font-family="'HelveticaNeueLTStd-Md'" font-size="12.8454">MEXICO-UNITED KINGDOM</text>
		</g>
		<g>
			<rect x="-437.107" y="-165.191" fill="none" width="181.813" height="11.642"/>
			<text transform="matrix(1 0 0 1 -437.1069 -156.0195)"><tspan x="0" y="0" fill="#FFFFFF" font-family="'HelveticaNeueLTStd-Md'" font-size="12.8454">HEAT TREATMENT NET</tspan><tspan x="143.021" y="0" fill="#FFFFFF" font-family="'HelveticaNeueLTStd-Md'" font-size="12.8454">-</tspan></text>
		</g>
	</g>
</g>
<g>
	<rect x="6.782" y="9" fill="none" width="124.166" height="33.904"/>
	<text transform="matrix(1 0 0 1 6.7822 28.7588)" fill="#5E5E5E" font-family="'OpenSans'" font-size="26">Follow US</text>
	<g>
	</g>
</g>
</svg>
