<?xml version="1.0" encoding="utf-8"?>
<!-- Generator: Adobe Illustrator 16.0.0, SVG Export Plug-In . SVG Version: 6.00 Build 0)  -->
<!DOCTYPE svg PUBLIC "-//W3C//DTD SVG 1.1//EN" "http://www.w3.org/Graphics/SVG/1.1/DTD/svg11.dtd">
<svg version="1.1" id="Layer_1" xmlns="http://www.w3.org/2000/svg" xmlns:xlink="http://www.w3.org/1999/xlink" x="0px" y="0px"
	 width="1600px" height="61.9px" viewBox="0 0 1600 61.9" enable-background="new 0 0 1600 61.9" xml:space="preserve">
<rect y="0.404" fill="#C7202A" width="1600" height="61.496"/>
<rect x="910" y="20" fill="#FFFFFF" width="198" height="24"/>
<text transform="matrix(1 0 0 1 579.334 37.7329)" fill="#FFFFFF" font-family="'OpenSans'" font-size="19">Downloads </text>
<text transform="matrix(1 0 0 1 719.3799 37.7329)" fill="#FFFFFF" font-family="'OpenSans'" font-size="19">Events</text>
<text transform="matrix(1 0 0 1 813.6113 37.7329)" fill="#FFFFFF" font-family="'OpenSans'" font-size="19">Contact</text>
<text transform="matrix(1 0 0 1 916.749 35.9712)" fill="#5E5E5E" font-family="'OpenSans'" font-size="13">Search...</text>
<text transform="matrix(1 0 0 1 487.0869 37.7329)" fill="#FFFFFF" font-family="'OpenSans'" font-size="19">Signup</text>
<rect y="-147.596" fill="#C7202A" width="1600" height="61.496"/>
<g>
	<rect x="910" y="-128" fill="#FFFFFF" width="198" height="24"/>
	<g>
		<text transform="matrix(1 0 0 1 579.334 -110.2671)" fill="#FFFFFF" font-family="'OpenSans'" font-size="19">Downloads </text>
		<text transform="matrix(1 0 0 1 719.3799 -110.2671)" fill="#FFFFFF" font-family="'OpenSans'" font-size="19">Events</text>
		<text transform="matrix(1 0 0 1 813.6113 -110.2671)" fill="#FFFFFF" font-family="'OpenSans'" font-size="19">Contact</text>
		<text transform="matrix(1 0 0 1 916.749 -112.0288)" fill="#5E5E5E" font-family="'OpenSans'" font-size="13">Search...</text>
		<text transform="matrix(1 0 0 1 487.0869 -110.2671)" fill="#FFFFFF" font-family="'OpenSans'" font-size="19">Signup</text>
	</g>
</g>
</svg>
